<svg width="17" height="16" viewBox="0 0 17 16" fill="none" xmlns="http://www.w3.org/2000/svg">
<path d="M6.5 3H5.5C5.23478 3 4.98043 3.10536 4.79289 3.29289C4.60536 3.48043 4.5 3.73478 4.5 4V12C4.5 12.2652 4.60536 12.5196 4.79289 12.7071C4.98043 12.8946 5.23478 13 5.5 13H6.5C6.76522 13 7.01957 12.8946 7.20711 12.7071C7.39464 12.5196 7.5 12.2652 7.5 12V4C7.5 3.73478 7.39464 3.48043 7.20711 3.29289C7.01957 3.10536 6.76522 3 6.5 3ZM11.5 3H10.5C10.2348 3 9.98043 3.10536 9.79289 3.29289C9.60536 3.48043 9.5 3.73478 9.5 4V12C9.5 12.2652 9.60536 12.5196 9.79289 12.7071C9.98043 12.8946 10.2348 13 10.5 13H11.5C11.7652 13 12.0196 12.8946 12.2071 12.7071C12.3946 12.5196 12.5 12.2652 12.5 12V4C12.5 3.73478 12.3946 3.48043 12.2071 3.29289C12.0196 3.10536 11.7652 3 11.5 3Z" fill="white"/>
</svg>
